:FULLY-SPECIFIED
:FORCE-ALL-JOINTS-BE-3DOF
:DEGREES
2446
root 2.31396 14.8912 -23.3732 -163.783 73.819 -163.287
lfemur -36.135 20.4314 -12.7864
ltibia 72.3297 -0 0
lfoot -27.2702 15.2861 -0.327564
ltoes -41.4366 0 0
rfemur -39.7472 -25.1156 11.0498
rtibia 63.4161 -0 0
rfoot 9.14423 -0.712958 0.401026
rtoes 0.720115 -0 0
lowerback 15.6677 1.25815 -4.44924
upperback -0.965561 1.13484 2.66166
thorax -9.82263 0.879567 5.18333
lowerneck 4.64242 -15.8803 -17.7725
upperneck -0.522861 -22.1296 16.3817
head 2.14597 -11.2092 6.7443
lclavicle 2.93207e-15 2.15681e-14 0
lhumerus -45.1966 -35.6821 110.845
lradius 102.151 -0 0
lwrist 69.1453 0 0
lhand 0.646827 41.7167 0.10682
lfingers 7.12502 -0 0
lthumb 26.0975 68.6989 -0.255205
rclavicle 2.93207e-15 2.15681e-14 0
rhumerus 22.9256 11.1832 -69.8518
rradius 112.871 -0 0
rwrist 3.20541 0 0
rhand -32.2857 -44.6705 0.446358
rfingers 7.12502 -0 0
rthumb -5.51469 -74.3012 0.397157
2447
root 2.37655 14.8849 -23.3996 -163.748 74.0662 -163.032
lfemur -35.6111 20.6499 -12.744
ltibia 72.4961 -0 0
lfoot -27.5926 15.5106 -0.315092
ltoes -41.2602 0 0
rfemur -39.9472 -25.0946 10.5846
rtibia 62.1178 -0 0
rfoot 9.79567 -0.18687 0.359756
rtoes 1.29368 -0 0
lowerback 15.6711 1.11324 -4.56534
upperback -0.968122 0.930679 2.76147
thorax -9.81571 0.791551 5.41013
lowerneck 4.58707 -15.8126 -17.746
upperneck -0.29415 -22.0479 16.2128
head 2.21092 -11.1633 6.69092
lclavicle 2.93207e-15 2.15681e-14 0
lhumerus -45.9048 -36.2623 111.252
lradius 102.738 -0 0
lwrist 70.4083 0 0
lhand 1.8867 41.7467 0.102993
lfingers 7.12502 -0 0
lthumb 27.2871 68.5959 -0.24102
rclavicle 2.93207e-15 2.15681e-14 0
rhumerus 21.1857 9.55766 -70.4635
rradius 112.549 -0 0
rwrist 6.01413 0 0
rhand -33.1015 -44.9117 0.423292
rfingers 7.12502 -0 0
rthumb -6.30218 -74.5399 0.375003
2448
root 2.44024 14.8775 -23.4252 -163.675 74.3623 -162.745
lfemur -35.0992 20.8588 -12.7051
ltibia 72.6715 -0 0
lfoot -27.8995 15.7366 -0.300629
ltoes -41.0715 0 0
rfemur -40.1517 -25.0593 10.1301
rtibia 60.8351 -0 0
rfoot 10.4264 0.320481 0.316716
rtoes 1.85979 -0 0
lowerback 15.676 0.969584 -4.67686
upperback -0.971217 0.72882 2.85966
thorax -9.81013 0.704333 5.63191
lowerneck 4.52393 -15.7324 -17.7054
upperneck -0.0577558 -21.9476 16.028
head 2.27734 -11.1079 6.63222
lclavicle 2.93207e-15 2.15681e-14 0
lhumerus -46.5723 -36.8607 111.65
lradius 103.327 -0 0
lwrist 71.6058 0 0
lhand 3.09644 41.7766 0.0984383
lfingers 7.12502 -0 0
lthumb 28.4477 68.4956 -0.225301
rclavicle 2.93207e-15 2.15681e-14 0
rhumerus 19.4719 7.95685 -71.0134
rradius 112.219 -0 0
rwrist 8.79215 0 0
rhand -33.8937 -45.1485 0.397502
rfingers 7.12502 -0 0
rthumb -7.06689 -74.7736 0.35048
2449
root 2.50515 14.8689 -23.4499 -163.56 74.7072 -162.422
lfemur -34.6009 21.0574 -12.6704
ltibia 72.8554 -0 0
lfoot -28.1896 15.9636 -0.284284
ltoes -40.8705 0 0
rfemur -40.3605 -25.0093 9.68778
rtibia 59.5717 -0 0
rfoot 11.0344 0.807417 0.272707
rtoes 2.41677 -0 0
lowerback 15.6824 0.827609 -4.7834
upperback -0.974826 0.529853 2.95595
thorax -9.80592 0.618172 5.84798
lowerneck 4.45305 -15.6396 -17.6507
upperneck 0.185642 -21.8285 15.8277
head 2.34505 -11.043 6.5683
lclavicle 2.93207e-15 2.15681e-14 0
lhumerus -47.1961 -37.4769 112.04
lradius 103.915 -0 0
lwrist 72.7332 0 0
lhand 4.27221 41.8063 0.0931987
lfingers 7.12502 -0 0
lthumb 29.5757 68.3983 -0.208264
rclavicle 2.93207e-15 2.15681e-14 0
rhumerus 17.7846 6.38807 -71.5033
rradius 111.883 -0 0
rwrist 11.5314 0 0
rhand -34.6597 -45.3804 0.369318
rfingers 7.12502 -0 0
rthumb -7.80631 -75.0016 0.323923
